<?xml version="1.0" encoding="iso-8859-1"?>
<!-- Generator: Adobe Illustrator 19.0.0, SVG Export Plug-In . SVG Version: 6.00 Build 0)  -->
<svg version="1.1" id="Capa_1" xmlns="http://www.w3.org/2000/svg" xmlns:xlink="http://www.w3.org/1999/xlink" x="0px" y="0px"
	 viewBox="0 0 512 512" style="enable-background:new 0 0 512 512;" xml:space="preserve">
<g>
	<g>
		<path style="fill:#303C42;" d="M331.588,188.479c-7.146-3.531-11.583-10.75-11.583-18.823v-62.99h10.667
			c5.896,0,10.667-4.771,10.667-10.667V53.333c0-5.896-4.771-10.667-10.667-10.667h-21.333v-32C309.338,4.771,304.567,0,298.671,0
			h-85.333c-5.896,0-10.667,4.771-10.667,10.667v32h-21.333c-5.896,0-10.667,4.771-10.667,10.667V96
			c0,5.896,4.771,10.667,10.667,10.667h10.667v62.979c0,7.969-4.427,15.302-11.281,18.677
			c-70.281,34.604-107.25,109.969-91.99,187.552c9.901,50.286,42.96,92.991,87.232,116.451c-3.109,1.863-5.294,5.116-5.294,9.008
			c0,5.896,4.771,10.667,10.667,10.667h149.333c5.896,0,10.667-4.771,10.667-10.667c0-4.042-2.329-7.43-5.638-9.24
			c10.1-5.331,19.772-11.581,28.742-18.969c39.552-32.573,62.229-80.615,62.229-131.792
			C426.672,276.063,390.234,217.49,331.588,188.479z M192.005,64h128v21.333h-10.667H202.671h-10.667V64z M317.557,384.698
			l-53.615,59.76c-2.021,2.25-4.906,3.542-7.938,3.542c-3.031,0-5.917-1.292-7.937-3.542l-53.583-59.719
			c-8.49-9.542-13.146-22.104-13.146-35.406c0-27.938,20.729-50.667,46.219-50.667c11.354,0,20.979,6.667,28.448,14.688
			c7.469-8.021,17.094-14.688,28.448-14.688c25.49,0,46.219,22.729,46.219,50.667C330.671,362.635,326.015,375.198,317.557,384.698z
			 M151.725,234.667c11.072-10.728,23.854-20.029,38.415-27.198c14.094-6.938,23.198-21.781,23.198-37.823v-62.979h85.333v62.99
			c0,16.25,8.99,30.792,23.458,37.948c14.339,7.092,26.965,16.37,37.999,27.063H151.725z"/>
	</g>
</g>
<g>
</g>
<g>
</g>
<g>
</g>
<g>
</g>
<g>
</g>
<g>
</g>
<g>
</g>
<g>
</g>
<g>
</g>
<g>
</g>
<g>
</g>
<g>
</g>
<g>
</g>
<g>
</g>
<g>
</g>
</svg>
